<?xml version="1.0" encoding="utf-8"?>
<!-- Generator: Adobe Illustrator 16.0.4, SVG Export Plug-In . SVG Version: 6.00 Build 0)  -->
<!DOCTYPE svg PUBLIC "-//W3C//DTD SVG 1.1//EN" "http://www.w3.org/Graphics/SVG/1.1/DTD/svg11.dtd">
<svg version="1.1" id="Layer_1" xmlns="http://www.w3.org/2000/svg" xmlns:xlink="http://www.w3.org/1999/xlink" x="0px" y="0px"
	 width="198.505px" height="235.348px" viewBox="0 0 198.505 235.348" enable-background="new 0 0 198.505 235.348"
	 xml:space="preserve">
<g>
	<path fill="#7E2C18" d="M156.873,90.479c0,0,8.044-12.256,22.345,1.71c14.301,13.966,14.301,13.966,14.301,13.966
		S151.705,120.924,156.873,90.479z"/>
	<polygon fill="#7E2C18" points="81.77,183.611 76.79,212.994 55.486,216.813 73.008,216.813 58.311,222.984 75.551,220.047 
		72.729,229.741 80.359,217.985 92.229,216.52 82.335,215.051 90.246,183.905 	"/>
	<polygon fill="#7E2C18" points="135.959,176.454 141.758,205.675 161.028,196.231 147.789,207.018 164.061,206.029 
		148.251,210.381 165.115,216.929 138.915,210.07 128.708,214.163 138.167,207.575 128.015,177.707 	"/>
	<path fill="#7E2C18" d="M161.901,108.286c-0.932-15.959-23.536-108.32-23.536-108.32l-13.823,21.219l-71.062,9.84L36.546,12.401
		l-3.284,16.418c0,0-5.001,40.401,0.297,80.157c-3.943,1.347-8.424,4.374-13.309,10.15C2.077,140.63,2.077,140.63,2.077,140.63
		s23.785,6.469,38.637,0.521c8.096,24.001,22.585,42.702,47.927,44.154l4.704,0.213c17.054,0.59,30.149-1.152,40.167-4.487
		l3.893-1.451C175.641,163.961,162.739,122.497,161.901,108.286z"/>
	<path fill="#FFFFFF" d="M84.375,76.152c1.385,9.746-5.096,18.816-14.471,20.255c-9.38,1.437-18.103-5.299-19.486-15.047
		c-1.384-9.75,5.097-18.819,14.473-20.258C74.267,59.666,82.99,66.399,84.375,76.152z"/>
	<path fill="#FFFFFF" d="M137.886,68.471c1.462,10.325-5.396,19.925-15.326,21.448c-9.931,1.523-19.168-5.609-20.631-15.933
		c-1.466-10.323,5.394-19.924,15.322-21.447C127.184,51.015,136.418,58.15,137.886,68.471z"/>
	<path fill="#D2E073" d="M61.524,56.489c0.153,1.064-0.554,2.054-1.577,2.21c-1.024,0.156-1.979-0.578-2.126-1.64
		c-0.152-1.065,0.555-2.056,1.58-2.212C60.422,54.69,61.374,55.424,61.524,56.489z"/>
	<path fill="#D2E073" d="M54.214,61.394c0.149,1.064-0.56,2.056-1.581,2.212c-1.022,0.157-1.976-0.58-2.127-1.643
		c-0.151-1.063,0.556-2.052,1.578-2.208C53.109,59.596,54.061,60.331,54.214,61.394z"/>
	<path fill="#D2E073" d="M48.707,69.811c0.153,1.062-0.557,2.052-1.58,2.209c-1.024,0.157-1.975-0.577-2.125-1.641
		c-0.152-1.062,0.557-2.054,1.578-2.21C47.603,68.011,48.555,68.747,48.707,69.811z"/>
	<path fill="#D2E073" d="M47.448,79.393c0.151,1.061-0.557,2.053-1.58,2.21c-1.023,0.156-1.975-0.58-2.128-1.642
		c-0.151-1.065,0.56-2.054,1.58-2.21C46.344,77.593,47.298,78.328,47.448,79.393z"/>
	<path fill="#D2E073" d="M49.193,87.601c0.15,1.064-0.554,2.053-1.577,2.211c-1.026,0.158-1.979-0.579-2.127-1.643
		c-0.152-1.064,0.556-2.053,1.579-2.211C48.089,85.802,49.044,86.537,49.193,87.601z"/>
	<path fill="#D2E073" d="M53.749,95.08c0.15,1.064-0.554,2.053-1.58,2.21c-1.023,0.158-1.975-0.579-2.125-1.642
		c-0.149-1.064,0.555-2.054,1.578-2.21C52.648,93.28,53.597,94.016,53.749,95.08z"/>
	<path fill="#D2E073" d="M61.105,99.704c0.151,1.063-0.556,2.056-1.58,2.211c-1.024,0.156-1.977-0.58-2.125-1.643
		c-0.153-1.063,0.554-2.053,1.577-2.21C60.004,97.904,60.956,98.642,61.105,99.704z"/>
	<path fill="#D2E073" d="M68.893,101.232c0.152,1.064-0.555,2.055-1.577,2.211c-1.025,0.157-1.977-0.579-2.127-1.642
		c-0.152-1.065,0.558-2.053,1.58-2.209C67.794,99.434,68.744,100.169,68.893,101.232z"/>
	<path fill="#D2E073" d="M76.963,100.604c0.15,1.062-0.557,2.052-1.582,2.21c-1.021,0.156-1.974-0.578-2.123-1.642
		c-0.151-1.065,0.555-2.054,1.575-2.211C75.859,98.803,76.812,99.539,76.963,100.604z"/>
	<path fill="#D2E073" d="M83.54,95.655c0.151,1.064-0.554,2.056-1.578,2.211c-1.024,0.158-1.975-0.577-2.126-1.642
		s0.555-2.054,1.581-2.211C82.438,93.856,83.392,94.591,83.54,95.655z"/>
	<path fill="#D2E073" d="M88.4,88.855c0.155,1.064-0.557,2.053-1.574,2.21c-1.025,0.158-1.979-0.579-2.133-1.643
		c-0.146-1.065,0.561-2.051,1.583-2.209C87.298,87.056,88.248,87.79,88.4,88.855z"/>
	<path fill="#D2E073" d="M90.41,82.493c0.15,1.062-0.559,2.053-1.581,2.209c-1.02,0.157-1.973-0.58-2.126-1.644
		c-0.15-1.064,0.558-2.052,1.582-2.208C89.306,80.692,90.258,81.427,90.41,82.493z"/>
	<path fill="#D2E073" d="M90.375,74.019c0.148,1.064-0.559,2.056-1.583,2.211c-1.023,0.157-1.974-0.579-2.122-1.645
		c-0.153-1.063,0.554-2.05,1.575-2.208C89.27,72.219,90.222,72.956,90.375,74.019z"/>
	<path fill="#D2E073" d="M88.342,65.849c0.15,1.064-0.559,2.055-1.583,2.21c-1.021,0.159-1.976-0.577-2.125-1.64
		c-0.153-1.065,0.556-2.055,1.578-2.211C87.236,64.051,88.19,64.787,88.342,65.849z"/>
	<path fill="#D2E073" d="M82.769,59.438c0.155,1.063-0.556,2.052-1.577,2.21c-1.023,0.155-1.975-0.578-2.129-1.642
		c-0.149-1.064,0.558-2.056,1.58-2.21C81.666,57.638,82.619,58.374,82.769,59.438z"/>
	<path fill="#D2E073" d="M76.439,55.866c0.152,1.066-0.553,2.054-1.583,2.211c-1.022,0.158-1.971-0.579-2.126-1.643
		c-0.149-1.062,0.558-2.054,1.584-2.21C75.337,54.068,76.288,54.804,76.439,55.866z"/>
	<path fill="#D2E073" d="M69.913,55.05c0.148,1.062-0.556,2.055-1.58,2.211c-1.023,0.156-1.975-0.577-2.124-1.643
		c-0.152-1.063,0.553-2.053,1.578-2.21C68.812,53.25,69.763,53.986,69.913,55.05z"/>
	<path fill="#D2E073" d="M114.064,49.038c0.149,1.062-0.558,2.051-1.575,2.209c-1.028,0.156-1.979-0.58-2.133-1.643
		c-0.153-1.063,0.557-2.055,1.582-2.212C112.958,47.234,113.914,47.972,114.064,49.038z"/>
	<path fill="#D2E073" d="M106.75,53.942c0.148,1.062-0.558,2.053-1.581,2.209c-1.021,0.157-1.972-0.577-2.126-1.641
		c-0.153-1.064,0.555-2.055,1.579-2.211C105.646,52.144,106.599,52.876,106.75,53.942z"/>
	<path fill="#D2E073" d="M101.245,62.356c0.152,1.063-0.558,2.054-1.58,2.21c-1.023,0.157-1.976-0.578-2.126-1.642
		c-0.148-1.064,0.555-2.053,1.578-2.21C100.139,60.558,101.093,61.294,101.245,62.356z"/>
	<path fill="#D2E073" d="M99.982,71.938c0.151,1.064-0.555,2.053-1.578,2.21c-1.022,0.156-1.975-0.578-2.129-1.642
		c-0.153-1.064,0.557-2.055,1.583-2.211C98.881,70.138,99.834,70.873,99.982,71.938z"/>
	<path fill="#D2E073" d="M101.731,80.147c0.148,1.064-0.558,2.052-1.581,2.211c-1.024,0.156-1.974-0.579-2.126-1.642
		c-0.148-1.065,0.558-2.055,1.579-2.209C100.629,78.349,101.581,79.084,101.731,80.147z"/>
	<path fill="#D2E073" d="M106.284,87.626c0.152,1.062-0.555,2.053-1.576,2.209c-1.026,0.156-1.978-0.579-2.127-1.642
		c-0.153-1.063,0.554-2.055,1.58-2.211C105.187,85.826,106.135,86.561,106.284,87.626z"/>
	<path fill="#D2E073" d="M113.64,92.25c0.155,1.062-0.555,2.055-1.578,2.21c-1.02,0.157-1.974-0.58-2.128-1.642
		c-0.148-1.063,0.561-2.053,1.58-2.21C112.541,90.45,113.49,91.186,113.64,92.25z"/>
	<path fill="#D2E073" d="M121.433,93.779c0.151,1.065-0.557,2.055-1.58,2.212c-1.023,0.159-1.974-0.577-2.125-1.642
		c-0.15-1.066,0.557-2.054,1.577-2.213C120.328,91.981,121.284,92.715,121.433,93.779z"/>
	<path fill="#D2E073" d="M129.5,93.148c0.148,1.064-0.554,2.054-1.58,2.213c-1.021,0.154-1.974-0.58-2.128-1.645
		c-0.148-1.064,0.559-2.054,1.582-2.21C128.401,91.348,129.343,92.085,129.5,93.148z"/>
	<path fill="#D2E073" d="M136.079,88.205c0.15,1.061-0.556,2.052-1.577,2.208c-1.024,0.158-1.978-0.578-2.129-1.642
		c-0.15-1.063,0.555-2.054,1.581-2.21C134.976,86.404,135.929,87.14,136.079,88.205z"/>
	<path fill="#D2E073" d="M140.937,81.402c0.147,1.063-0.553,2.054-1.575,2.209c-1.027,0.157-1.981-0.579-2.129-1.641
		c-0.155-1.065,0.558-2.053,1.58-2.211C139.834,79.601,140.786,80.336,140.937,81.402z"/>
	<path fill="#D2E073" d="M142.947,75.039c0.151,1.061-0.556,2.05-1.581,2.209c-1.021,0.157-1.977-0.578-2.125-1.645
		c-0.148-1.061,0.558-2.051,1.579-2.209C141.847,73.238,142.793,73.973,142.947,75.039z"/>
	<path fill="#D2E073" d="M142.912,66.564c0.149,1.065-0.559,2.054-1.581,2.211c-1.023,0.156-1.979-0.579-2.128-1.644
		c-0.146-1.064,0.558-2.053,1.581-2.209C141.807,64.765,142.758,65.501,142.912,66.564z"/>
	<path fill="#D2E073" d="M140.879,58.395c0.146,1.066-0.558,2.054-1.585,2.213c-1.022,0.156-1.972-0.578-2.124-1.642
		c-0.15-1.063,0.556-2.054,1.579-2.21C139.775,56.598,140.725,57.332,140.879,58.395z"/>
	<path fill="#D2E073" d="M135.309,51.984c0.149,1.062-0.56,2.05-1.581,2.209c-1.022,0.159-1.973-0.579-2.123-1.643
		c-0.153-1.063,0.553-2.051,1.574-2.209C134.205,50.184,135.157,50.919,135.309,51.984z"/>
	<path fill="#D2E073" d="M128.981,48.414c0.147,1.063-0.562,2.052-1.589,2.21c-1.02,0.155-1.969-0.579-2.121-1.643
		c-0.152-1.065,0.555-2.055,1.579-2.211C127.874,46.613,128.829,47.35,128.981,48.414z"/>
	<path fill="#D2E073" d="M122.451,47.597c0.147,1.064-0.551,2.053-1.582,2.208c-1.021,0.159-1.972-0.575-2.122-1.64
		c-0.153-1.063,0.553-2.055,1.577-2.21C121.351,45.798,122.297,46.531,122.451,47.597z"/>
	<path fill="#F2766D" d="M52.011,133.094c0,0,42.093-1.188,51.744-3.295c9.652-2.104,52.29-20.552,52.29-20.552
		s2.653,43.85-5.347,52.448c-7.994,8.601-28.735,20.221-38.797,21.326s-35.05-0.805-43.196-10.405
		C60.562,163.004,55.102,141.829,52.011,133.094z"/>
	<polygon fill="#D2E073" points="93.933,84.318 119.343,100.18 92.52,98.74 119.142,104.107 96.753,105.949 88.285,98.74 	"/>
	<path fill="#5A4A42" d="M80.253,70.911c0.365,2.565-1.341,4.95-3.805,5.328c-2.467,0.378-4.762-1.395-5.128-3.958
		c-0.361-2.564,1.341-4.95,3.807-5.328C77.593,66.573,79.887,68.347,80.253,70.911z"/>
	<path fill="#5A4A42" d="M132.875,62.501c0.362,2.564-1.339,4.948-3.805,5.326c-2.468,0.378-4.762-1.396-5.128-3.958
		c-0.362-2.562,1.342-4.95,3.809-5.328C130.219,58.162,132.51,59.936,132.875,62.501z"/>
	<path fill="#D2E073" d="M57.2,133.227c0,0,1.546,10.444,7.372,10.459c5.83,0.021,8.802-11.603,8.802-11.603L57.2,133.227z"/>
	<path fill="#D2E073" d="M67.865,143.806c0,0,1.543,10.444,7.375,10.459c5.827,0.021,8.798-11.599,8.798-11.599L67.865,143.806z"/>
	<path fill="#D2E073" d="M78.001,153.053c0,0,1.55,10.441,7.38,10.46c5.828,0.02,8.798-11.599,8.798-11.599L78.001,153.053z"/>
	<path fill="#D2E073" d="M60.855,155.799c0,0,1.551,10.444,7.376,10.462c5.827,0.018,8.798-11.604,8.798-11.604L60.855,155.799z"/>
	<path fill="#D2E073" d="M98.717,149.042c0,0,2.222,10.261,8.033,9.708c5.809-0.55,8.017-12.423,8.017-12.423L98.717,149.042z"/>
	<path fill="#D2E073" d="M91.514,158.826c0,0,1.55,10.444,7.379,10.461c5.827,0.019,8.797-11.602,8.797-11.602L91.514,158.826z"/>
	<path fill="#D2E073" d="M70.146,165.198c0,0,1.544,10.444,7.372,10.463c5.828,0.016,8.798-11.604,8.798-11.604L70.146,165.198z"/>
	<path fill="#D2E073" d="M130.924,149.903c0,0,1.551,10.441,7.382,10.459c5.826,0.018,8.798-11.602,8.798-11.602L130.924,149.903z"
		/>
	<path fill="#D2E073" d="M122.74,161.75c0,0,1.545,10.443,7.378,10.464c5.828,0.015,8.797-11.603,8.797-11.603L122.74,161.75z"/>
	<path fill="#D2E073" d="M83.814,169.875c0,0,1.547,10.444,7.372,10.462c5.83,0.016,8.8-11.607,8.8-11.607L83.814,169.875z"/>
	<path fill="#D2E073" d="M112.229,154.815c0,0,2.221,10.26,8.027,9.71c5.814-0.551,8.022-12.426,8.022-12.426L112.229,154.815z"/>
	<path fill="#D2E073" d="M102.703,167.623c0,0,2.218,10.263,8.028,9.708c5.807-0.551,8.017-12.424,8.017-12.424L102.703,167.623z"/>
	<path fill="#D2E073" d="M122.133,142.769c0,0,2.858,10.02,8.62,8.913c5.757-1.101,7.205-13.147,7.205-13.147L122.133,142.769z"/>
	<path fill="#D2E073" d="M139.723,138.869c0,0,2.858,10.017,8.622,8.916c5.755-1.104,7.208-13.15,7.208-13.15L139.723,138.869z"/>
	<path fill="#D2E073" d="M87.045,141.047c0,0,1.551,10.445,7.379,10.459c5.825,0.022,8.798-11.6,8.798-11.6L87.045,141.047z"/>
	<path fill="#D2E073" d="M109.153,136.911c0,0,2.32,10.227,8.12,9.593c5.811-0.638,7.905-12.54,7.905-12.54L109.153,136.911z"/>
	<path fill="#D2E073" d="M130.509,130.243c0,0,2.92,9.993,8.667,8.843c5.755-1.148,7.139-13.208,7.139-13.208L130.509,130.243z"/>
	<path fill="#D2E073" d="M76.636,132.567c0,0,1.548,10.443,7.375,10.462c5.826,0.018,8.799-11.603,8.799-11.603L76.636,132.567z"/>
	<path fill="#D2E073" d="M95.248,130.854c0,0,2.318,10.225,8.12,9.59c5.804-0.634,7.902-12.541,7.902-12.541L95.248,130.854z"/>
	<path fill="#D2E073" d="M117.433,125.418c0,0,3.4,9.755,9.089,8.175c5.683-1.574,6.466-13.715,6.466-13.715L117.433,125.418z"/>
	<path fill="#D2E073" d="M136.51,116.957c0,0,3.407,9.756,9.091,8.177c5.688-1.575,6.469-13.718,6.469-13.718L136.51,116.957z"/>
</g>
<g>
</g>
<g>
</g>
<g>
</g>
<g>
</g>
<g>
</g>
<g>
</g>
<g>
</g>
<g>
</g>
<g>
</g>
<g>
</g>
<g>
</g>
<g>
</g>
<g>
</g>
<g>
</g>
<g>
</g>
</svg>
