<?xml version="1.0" encoding="utf-8"?>
<!-- Generator: Adobe Illustrator 16.0.4, SVG Export Plug-In . SVG Version: 6.00 Build 0)  -->
<!DOCTYPE svg PUBLIC "-//W3C//DTD SVG 1.1//EN" "http://www.w3.org/Graphics/SVG/1.1/DTD/svg11.dtd">
<svg version="1.1" id="Layer_1" xmlns="http://www.w3.org/2000/svg" xmlns:xlink="http://www.w3.org/1999/xlink" x="0px" y="0px"
	 width="107.092px" height="97.172px" viewBox="0 0 107.092 97.172" enable-background="new 0 0 107.092 97.172"
	 xml:space="preserve">
<g>
	<polygon fill="#832C12" points="43.145,77.675 61.463,86.4 63.633,84.703 65.1,85.986 62.1,87.718 65.259,89.773 63.408,91.201 
		60.813,88.785 59.584,91.115 58.152,90.673 59.121,88.017 42.312,79.564 	"/>
	<polygon fill="#832C12" points="36.724,75.609 48.898,92.001 51.602,91.531 52.307,93.361 48.857,93.47 50.703,96.785 
		48.411,97.171 47.229,93.806 45.836,96.585 44.254,95.453 46.085,92.324 35.115,76.885 	"/>
	<path fill="#0083AA" d="M85.667,68.21L25.506,8.118c0,0-27.473,34.55-12.037,56.095C28.904,85.757,75.811,88.591,85.667,68.21z"/>
	<polygon fill="#832C12" points="14.164,26.962 14.488,26.465 11.317,34.761 0,26.001 	"/>
	<path fill="#FFFFFF" d="M18.277,31.011c-1.018,3.815,1.207,7.744,4.968,8.775c3.76,1.03,7.633-1.228,8.649-5.042
		c1.016-3.814-1.209-7.742-4.969-8.772C23.165,24.94,19.293,27.197,18.277,31.011z"/>
	<path fill="#1D1D1B" d="M20.02,30.425c-0.375,1.409,0.445,2.857,1.836,3.238c1.388,0.381,2.816-0.451,3.192-1.859
		c0.376-1.41-0.446-2.858-1.835-3.239C21.824,28.185,20.396,29.016,20.02,30.425z"/>
	<path fill="#E8CAAF" d="M38.003,44.909l29.945,21.935c0,0-14.519,8.802-24.016,7.441c-9.498-1.357-19.345-10.556-19.345-10.556
		L38.003,44.909z"/>
	<polygon fill="#832C12" points="38.951,48.872 41.898,51.09 40.988,51.898 38.325,49.883 	"/>
	<polygon fill="#832C12" points="36.742,52.012 39.688,54.229 38.777,55.037 36.114,53.024 	"/>
	<polygon fill="#832C12" points="34.533,55.154 37.477,57.369 36.566,58.179 33.904,56.164 	"/>
	<polygon fill="#832C12" points="32.321,58.295 35.266,60.511 34.357,61.318 31.694,59.304 	"/>
	<polygon fill="#832C12" points="30.109,61.434 33.056,63.65 32.147,64.458 29.484,62.445 	"/>
	<polygon fill="#832C12" points="43.979,50.785 46.924,53.002 46.013,53.812 43.352,51.798 	"/>
	<polygon fill="#832C12" points="41.768,53.927 44.715,56.145 43.804,56.951 41.144,54.937 	"/>
	<polygon fill="#832C12" points="39.559,57.067 42.502,59.284 41.593,60.094 38.932,58.08 	"/>
	<polygon fill="#832C12" points="37.348,60.208 40.292,62.424 39.383,63.234 36.722,61.22 	"/>
	<polygon fill="#832C12" points="35.136,63.351 38.082,65.565 37.172,66.373 34.51,64.358 	"/>
	<polygon fill="#832C12" points="47.021,55.4 49.966,57.619 49.057,58.428 46.395,56.415 	"/>
	<polygon fill="#832C12" points="44.81,58.543 47.755,60.759 46.845,61.568 44.183,59.556 	"/>
	<polygon fill="#832C12" points="42.599,61.683 45.545,63.901 44.634,64.709 41.974,62.694 	"/>
	<polygon fill="#832C12" points="40.39,64.825 43.332,67.04 42.426,67.851 39.762,65.837 	"/>
	<polygon fill="#832C12" points="38.179,67.963 41.124,70.181 40.216,70.989 37.552,68.976 	"/>
	<polygon fill="#832C12" points="52.328,57.521 55.272,59.736 54.363,60.546 51.703,58.532 	"/>
	<polygon fill="#832C12" points="50.118,60.661 53.062,62.877 52.154,63.687 49.491,61.672 	"/>
	<polygon fill="#832C12" points="47.909,63.801 50.853,66.018 49.943,66.827 47.281,64.812 	"/>
	<polygon fill="#832C12" points="45.697,66.941 48.643,69.156 47.732,69.966 45.07,67.953 	"/>
	<polygon fill="#832C12" points="43.486,70.082 46.432,72.298 45.521,73.106 42.86,71.094 	"/>
	<polygon fill="#832C12" points="55.7,62.03 58.645,64.247 57.735,65.055 55.072,63.041 	"/>
	<polygon fill="#832C12" points="53.489,65.17 56.436,67.387 55.524,68.195 52.864,66.182 	"/>
	<polygon fill="#832C12" points="61.659,62.981 64.604,65.199 63.695,66.007 61.033,63.992 	"/>
	<polygon fill="#832C12" points="59.449,66.122 62.392,68.34 61.483,69.146 58.821,67.134 	"/>
	<polygon fill="#832C12" points="51.278,68.311 54.225,70.527 53.313,71.337 50.653,69.322 	"/>
	<polygon fill="#832C12" points="77.941,60.751 97.615,38.029 99.847,41.078 84.326,58.438 101.982,43.288 104.609,47.26 
		86.329,61.751 105.184,48.717 107.092,52.978 85.271,68.123 	"/>
	<polygon fill="#832C12" points="28.843,11.702 31.192,0.482 27.936,0.076 27.027,6.492 25.872,0 23.092,0.213 24.518,6.29 
		20.868,0.742 18.363,2.329 	"/>
	<path fill="#832C12" d="M73.773,52.221c-0.229,0.861,0.272,1.746,1.123,1.979c0.848,0.232,1.724-0.275,1.952-1.137
		c0.23-0.862-0.273-1.748-1.121-1.98C74.877,50.849,74.003,51.357,73.773,52.221z"/>
	<path fill="#832C12" d="M68.654,47.552c-0.229,0.859,0.272,1.748,1.121,1.979c0.85,0.233,1.725-0.277,1.954-1.137
		c0.229-0.861-0.272-1.749-1.123-1.983C69.759,46.18,68.884,46.689,68.654,47.552z"/>
	<path fill="#832C12" d="M63.534,42.881c-0.229,0.861,0.273,1.749,1.123,1.981c0.848,0.232,1.724-0.277,1.953-1.138
		c0.229-0.863-0.274-1.749-1.122-1.981C64.639,41.511,63.764,42.019,63.534,42.881z"/>
	<path fill="#832C12" d="M58.415,38.212c-0.229,0.86,0.273,1.748,1.123,1.981c0.849,0.231,1.723-0.278,1.952-1.14
		c0.229-0.86-0.272-1.748-1.121-1.98C59.521,36.84,58.645,37.351,58.415,38.212z"/>
	<path fill="#832C12" d="M53.296,33.542c-0.229,0.861,0.273,1.748,1.122,1.98c0.85,0.233,1.724-0.276,1.952-1.138
		c0.23-0.861-0.271-1.747-1.121-1.98C54.4,32.171,53.525,32.68,53.296,33.542z"/>
	<path fill="#832C12" d="M49.146,29.059c-0.229,0.86,0.273,1.748,1.123,1.981c0.85,0.232,1.725-0.277,1.954-1.139
		c0.229-0.86-0.274-1.749-1.123-1.981C50.252,27.687,49.377,28.197,49.146,29.059z"/>
	<path fill="#832C12" d="M45,24.574c-0.229,0.861,0.273,1.748,1.121,1.98c0.85,0.232,1.724-0.276,1.953-1.139
		c0.229-0.861-0.272-1.747-1.122-1.98C46.104,23.204,45.229,23.713,45,24.574z"/>
	<path fill="#832C12" d="M40.851,20.091c-0.229,0.859,0.274,1.748,1.123,1.98c0.849,0.233,1.723-0.278,1.951-1.138
		c0.229-0.861-0.271-1.749-1.12-1.982C41.955,18.719,41.08,19.229,40.851,20.091z"/>
	<path fill="#832C12" d="M36.702,15.605c-0.229,0.863,0.272,1.747,1.123,1.981c0.849,0.232,1.723-0.275,1.952-1.139
		c0.23-0.86-0.273-1.748-1.121-1.98C37.805,14.234,36.932,14.745,36.702,15.605z"/>
</g>
</svg>
