<?xml version="1.0" encoding="utf-8"?>
<!-- Generator: Adobe Illustrator 16.0.4, SVG Export Plug-In . SVG Version: 6.00 Build 0)  -->
<!DOCTYPE svg PUBLIC "-//W3C//DTD SVG 1.1//EN" "http://www.w3.org/Graphics/SVG/1.1/DTD/svg11.dtd">
<svg version="1.1" id="Layer_1" xmlns="http://www.w3.org/2000/svg" xmlns:xlink="http://www.w3.org/1999/xlink" x="0px" y="0px"
	 width="92.668px" height="94.241px" viewBox="0 0 92.668 94.241" enable-background="new 0 0 92.668 94.241" xml:space="preserve">
<g>
	<polygon fill="#832C12" points="62.793,83.771 78.477,88.693 82.494,87.814 79.951,89.628 81.94,91.799 79.168,91.35 
		78.636,94.241 76.793,91.558 61.667,85.681 	"/>
	<polygon fill="#832C12" points="81.032,84.368 80.705,81.311 65.967,77.716 66.406,76.179 81.645,79.607 86.098,77.191 
		83.657,80.683 85.915,82.925 82.26,81.717 	"/>
	<g>
		<polygon fill="#D9DF73" points="33.073,5.344 28.958,19.986 27.923,19.719 32.042,5.078 		"/>
	</g>
	<g>
		<polygon fill="#D9DF73" points="23.779,18.86 22.721,18.719 24.754,4.466 25.812,4.605 		"/>
	</g>
	<g>
		<polygon fill="#D9DF73" points="20.332,18.868 19.268,18.927 18.292,4.058 19.356,3.998 		"/>
	</g>
	<path fill="#F29100" d="M13.435,24.386l13.016,10.815c0,0,0.211,0.153,0.575,0.412L13.435,24.386
		c2.636-5.436,5.906-8.57,16.976-4.401c9.646,3.634,5.529,17.441,4.312,20.932c5.912,3.943,13.414,8.627,16.905,9.496
		c6.229,1.546,41.041,8.136,41.041,8.136S79.127,87.287,53.165,87.131C27.205,86.973,12.357,68.99,9.09,57.998
		C5.826,47.005,13.435,24.386,13.435,24.386z"/>
	<polygon fill="#BC2D18" points="13.575,26.315 16.805,31.053 11.467,33.219 5.621,27.403 	"/>
	<path fill="#FFFFFF" d="M19.01,27.565c-0.462,2.081,0.935,4.13,3.12,4.58c2.187,0.446,4.34-0.876,4.801-2.957
		c0.466-2.081-0.934-4.131-3.121-4.579C21.624,24.162,19.473,25.485,19.01,27.565z"/>
	<path fill="#1D1D1B" d="M19.42,29.298c-0.214,0.961,0.434,1.907,1.443,2.116c1.01,0.205,2.003-0.405,2.216-1.366
		c0.215-0.961-0.434-1.91-1.441-2.116C20.627,27.725,19.634,28.335,19.42,29.298z"/>
	<path fill="#832C12" d="M31.151,3.837c-0.256,1.148,0.516,2.278,1.726,2.526c1.206,0.248,2.393-0.483,2.646-1.632
		c0.255-1.148-0.517-2.279-1.722-2.525C32.592,1.958,31.409,2.688,31.151,3.837z"/>
	<path fill="#832C12" d="M22.32,2.435c-0.305,1.362,0.613,2.706,2.049,2.999c1.433,0.294,2.842-0.574,3.146-1.936
		c0.302-1.363-0.612-2.707-2.049-3.001C24.032,0.204,22.625,1.071,22.32,2.435z"/>
	<path fill="#832C12" d="M15.017,1.889c-0.287,1.291,0.578,2.564,1.938,2.843c1.356,0.277,2.691-0.543,2.979-1.834
		c0.287-1.293-0.579-2.565-1.938-2.843C16.638-0.224,15.305,0.597,15.017,1.889z"/>
	<path fill="#008AA0" d="M35.222,46.361c0,0,15.147,10.265,16.199,10.626c1.052,0.36,27.547,8.869,27.547,8.869
		S64.75,80.249,52.314,79.375c-12.435-0.872-18.371-6.649-21.812-10.933c-3.438-4.281-4.91-13.812-4.91-13.812L35.222,46.361z"/>
	<polygon fill="#D9DF73" points="35.706,49.141 43.283,54.351 34.492,50.133 	"/>
	<polygon fill="#D9DF73" points="32.951,51.417 37.118,56.667 31.543,52.343 	"/>
	<polygon fill="#D9DF73" points="28.798,54.019 32.031,58.948 27.713,54.653 	"/>
	<polygon fill="#D9DF73" points="39.624,54.506 38.714,55.804 44.824,58.702 	"/>
	<polygon fill="#D9DF73" points="35.379,58.487 34.027,59.833 39.925,63.866 	"/>
	<polygon fill="#D9DF73" points="31.256,62.707 29.837,64.234 35.547,68.204 	"/>
	<polygon fill="#D9DF73" points="39.497,66.134 38.401,67.369 46.4,70.309 	"/>
	<polygon fill="#D9DF73" points="48.923,58.497 48.39,59.923 54.096,61.072 	"/>
	<polygon fill="#D9DF73" points="45.192,65.066 44.722,66.313 52.294,68.705 	"/>
	<polygon fill="#D9DF73" points="43.829,72.647 43.858,74.268 50.917,74.07 	"/>
	<path fill="#D9DF73" d="M49.745,64.209l-7.626-2.812l0.534-1.425L49.745,64.209z M52.56,65.172l0.276-1.311l0.139-0.356
		l6.751,2.312L52.56,65.172z"/>
	<polygon fill="#D9DF73" points="59.938,61.866 59.213,63.228 68.258,64.513 	"/>
	<polygon fill="#D9DF73" points="56.27,68.256 55.856,69.925 62.808,68.886 	"/>
	<polygon fill="#D9DF73" points="53.972,72.7 53.867,74.675 62.464,73.195 	"/>
	<polygon fill="#D9DF73" points="65.811,67.096 65.823,69.314 73.566,66.735 	"/>
	<path fill="#008AA0" d="M84.874,53.796c-0.148,0.666,0.3,1.321,0.998,1.463c0.699,0.144,1.387-0.278,1.534-0.945
		c0.147-0.665-0.301-1.319-0.996-1.463C85.708,52.708,85.022,53.13,84.874,53.796z"/>
	<path fill="#008AA0" d="M78.011,52.585c-0.148,0.664,0.296,1.32,1,1.462c0.697,0.144,1.386-0.279,1.533-0.944
		c0.148-0.666-0.298-1.32-0.998-1.463C78.848,51.496,78.16,51.918,78.011,52.585z"/>
	<path fill="#008AA0" d="M71.734,51.491c-0.124,0.563,0.255,1.117,0.849,1.241c0.591,0.12,1.172-0.237,1.297-0.802
		c0.126-0.562-0.252-1.117-0.845-1.236C72.442,50.572,71.864,50.929,71.734,51.491z"/>
	<path fill="#008AA0" d="M65.502,50.216c-0.127,0.562,0.251,1.115,0.845,1.238c0.593,0.122,1.172-0.236,1.296-0.801
		c0.128-0.562-0.249-1.117-0.842-1.236C66.207,49.293,65.627,49.652,65.502,50.216z"/>
	<path fill="#008AA0" d="M59.566,48.515c-0.138,0.614,0.274,1.219,0.923,1.351c0.643,0.133,1.278-0.258,1.413-0.872
		c0.139-0.614-0.275-1.22-0.919-1.352C60.336,47.511,59.703,47.9,59.566,48.515z"/>
	<path fill="#008AA0" d="M53.134,47.198c-0.159,0.717,0.323,1.421,1.077,1.576c0.752,0.155,1.492-0.301,1.652-1.018
		c0.158-0.717-0.321-1.422-1.076-1.577C54.037,46.024,53.294,46.482,53.134,47.198z"/>
	<path fill="#008AA0" d="M47.714,45.021c-0.149,0.667,0.298,1.321,0.996,1.465c0.7,0.141,1.385-0.281,1.532-0.947
		c0.15-0.666-0.295-1.32-0.996-1.462C48.549,43.932,47.862,44.355,47.714,45.021z"/>
	<path fill="#008AA0" d="M42.7,42.831c-0.147,0.665,0.296,1.319,0.997,1.463c0.701,0.144,1.389-0.277,1.537-0.945
		c0.146-0.664-0.301-1.32-0.999-1.462C43.536,41.743,42.848,42.166,42.7,42.831z"/>
	<path fill="#008AA0" d="M38.046,39.94c-0.171,0.768,0.344,1.524,1.153,1.69c0.807,0.164,1.602-0.324,1.77-1.092
		c0.171-0.766-0.344-1.523-1.152-1.687C39.01,38.684,38.217,39.173,38.046,39.94z"/>
</g>
</svg>
