<?xml version="1.0" encoding="utf-8"?>
<!-- Generator: Adobe Illustrator 16.0.4, SVG Export Plug-In . SVG Version: 6.00 Build 0)  -->
<!DOCTYPE svg PUBLIC "-//W3C//DTD SVG 1.1//EN" "http://www.w3.org/Graphics/SVG/1.1/DTD/svg11.dtd">
<svg version="1.1" id="Layer_1" xmlns="http://www.w3.org/2000/svg" xmlns:xlink="http://www.w3.org/1999/xlink" x="0px" y="0px"
	 width="92.667px" height="51.117px" viewBox="0 0 92.667 51.117" enable-background="new 0 0 92.667 51.117" xml:space="preserve">
<g>
	
		<ellipse transform="matrix(0.9764 0.216 -0.216 0.9764 8.8937 -11.926)" fill="#008AA0" cx="58.996" cy="34.717" rx="21.285" ry="15.744"/>
	<polygon fill="#832C12" points="79.997,34.848 88.746,39.445 77.89,43.369 	"/>
	<circle fill="#FFFFFF" cx="64.501" cy="36.83" r="8.456"/>
	<circle fill="#1D1D1B" cx="68.293" cy="38.254" r="2.916"/>
	<path fill="#D9DF73" d="M41.643,23.91c0,0-6.823-15.784-13.405-18.559S18.147,0,18.147,0l-2.689,5.643
		c0,0,10.256,4.068,11.756,5.96c1.5,1.891,12.348,15.206,12.348,15.206S11.251,14.907,10.425,14.843
		c-0.825-0.062-3.829,6.47-3.829,6.47l31.23,9.549l-34.196-1.57l0.451,6.097l34.308-0.564c0,0,0.377-4.955,0.719-5.958
		C39.448,27.862,41.643,23.91,41.643,23.91z"/>
	<circle fill="#BC2D18" cx="38.936" cy="22.591" r="0.936"/>
	<circle fill="#BC2D18" cx="36.731" cy="28.221" r="0.937"/>
	<circle fill="#BC2D18" cx="32.83" cy="26.879" r="0.937"/>
	<circle fill="#BC2D18" cx="28.928" cy="25.536" r="0.937"/>
	<circle fill="#BC2D18" cx="25.028" cy="24.194" r="0.937"/>
	<circle fill="#BC2D18" cx="21.126" cy="22.851" r="0.937"/>
	<circle fill="#BC2D18" cx="17.225" cy="21.509" r="0.937"/>
	<circle fill="#BC2D18" cx="13.323" cy="20.167" r="0.937"/>
	<circle fill="#BC2D18" cx="35.884" cy="32.591" r="0.937"/>
	<circle fill="#BC2D18" cx="32.048" cy="32.582" r="0.937"/>
	<circle fill="#BC2D18" cx="28.211" cy="32.573" r="0.937"/>
	<circle fill="#BC2D18" cx="24.375" cy="32.564" r="0.937"/>
	<circle fill="#BC2D18" cx="20.539" cy="32.555" r="0.936"/>
	<circle fill="#BC2D18" cx="16.703" cy="32.546" r="0.937"/>
	<circle fill="#BC2D18" cx="12.867" cy="32.536" r="0.936"/>
	<circle fill="#BC2D18" cx="9.031" cy="32.527" r="0.936"/>
	<circle fill="#BC2D18" cx="36.666" cy="19.031" r="0.937"/>
	<circle fill="#BC2D18" cx="34.395" cy="15.47" r="0.937"/>
	<circle fill="#BC2D18" cx="32.123" cy="11.91" r="0.937"/>
	<circle fill="#BC2D18" cx="28.641" cy="9.22" r="0.936"/>
	<circle fill="#BC2D18" cx="24.37" cy="6.835" r="0.937"/>
	<circle fill="#BC2D18" cx="20.686" cy="5.061" r="0.937"/>
	<circle fill="#E8CAAF" cx="72.216" cy="29.864" r="0.688"/>
	<circle fill="#E8CAAF" cx="69.317" cy="27.621" r="0.688"/>
	<circle fill="#E8CAAF" cx="65.884" cy="26.349" r="0.688"/>
	<circle fill="#E8CAAF" cx="62.031" cy="26.393" r="0.688"/>
	<circle fill="#E8CAAF" cx="58.464" cy="28.038" r="0.688"/>
	<path fill="#BBDFE4" d="M43.833,31.19c0,0,7.996,0.054,12.097,1.341l-0.625,0.243l-2.818,11.008c0,0-11.937-3.786-11.194-8.005
		C42.036,31.555,43.833,31.19,43.833,31.19z"/>
	<polygon fill="#832C12" points="52.862,34.332 44.562,33.068 44.582,33.835 52.217,35.524 	"/>
	<polygon fill="#832C12" points="51.713,36.937 51.574,38.431 44.323,35.875 44.664,35.187 	"/>
	<polygon fill="#832C12" points="50.706,39.765 50.567,41.259 43.88,37.874 44.222,37.186 	"/>
</g>
</svg>
