<?xml version="1.0" encoding="utf-8"?>
<!-- Generator: Adobe Illustrator 16.0.4, SVG Export Plug-In . SVG Version: 6.00 Build 0)  -->
<!DOCTYPE svg PUBLIC "-//W3C//DTD SVG 1.1//EN" "http://www.w3.org/Graphics/SVG/1.1/DTD/svg11.dtd">
<svg version="1.1" xmlns="http://www.w3.org/2000/svg" xmlns:xlink="http://www.w3.org/1999/xlink" x="0px" y="0px" width="45px"
	 height="45px" viewBox="0 0 45 45" enable-background="new 0 0 45 45" xml:space="preserve">
<g id="Layer_2" display="none">
	<rect display="inline" fill="#F01570" width="373.903" height="45"/>
</g>
<g id="Layer_1">
	<g>
		<g>
			<path fill="#3D5194" d="M42.538,31.934c0,5.771-4.721,10.491-10.491,10.491H13.029c-5.771,0-10.491-4.721-10.491-10.491V12.917
				c0-5.771,4.721-10.491,10.491-10.491h19.018c5.771,0,10.491,4.721,10.491,10.491V31.934z"/>
			<path fill="none" stroke="#3D5194" stroke-width="2" stroke-miterlimit="10" d="M42.538,31.934
				c0,5.771-4.721,10.491-10.491,10.491H13.029c-5.771,0-10.491-4.721-10.491-10.491V12.917c0-5.771,4.721-10.491,10.491-10.491
				h19.018c5.771,0,10.491,4.721,10.491,10.491V31.934z"/>
		</g>
		<path fill="#FFFFFF" d="M23.717,43.425V30.142h-4.47v-5.177h4.47v-3.816c0-4.431,2.704-6.845,6.657-6.845
			c1.893,0,3.52,0.144,3.994,0.205v4.63l-2.741,0.002c-2.149,0-2.564,1.021-2.564,2.519v3.306h5.125l-0.668,5.177h-4.457v13.283
			H23.717z"/>
	</g>
</g>
</svg>
