<?xml version="1.0" encoding="utf-8"?>
<!-- Generator: Adobe Illustrator 16.0.4, SVG Export Plug-In . SVG Version: 6.00 Build 0)  -->
<!DOCTYPE svg PUBLIC "-//W3C//DTD SVG 1.1//EN" "http://www.w3.org/Graphics/SVG/1.1/DTD/svg11.dtd">
<svg version="1.1" xmlns="http://www.w3.org/2000/svg" xmlns:xlink="http://www.w3.org/1999/xlink" x="0px" y="0px" width="45px"
	 height="45px" viewBox="0 0 45 45" enable-background="new 0 0 45 45" xml:space="preserve">
<g id="Layer_2" display="none">
	<rect x="-45" display="inline" fill="#F01570" width="373.903" height="45"/>
</g>
<g id="Layer_1">
	<g>
		<g>
			<path fill="#FFFFFF" d="M42.562,32.009c0,5.771-4.721,10.491-10.491,10.491H13.054c-5.771,0-10.491-4.721-10.491-10.491V12.991
				C2.562,7.221,7.283,2.5,13.054,2.5h19.018c5.771,0,10.491,4.721,10.491,10.491V32.009z"/>
			<path fill="none" stroke="#FFFFFF" stroke-width="2" stroke-miterlimit="10" d="M42.562,32.009
				c0,5.771-4.721,10.491-10.491,10.491H13.054c-5.771,0-10.491-4.721-10.491-10.491V12.991C2.562,7.221,7.283,2.5,13.054,2.5
				h19.018c5.771,0,10.491,4.721,10.491,10.491V32.009z"/>
		</g>
		<g>
			<path fill="#6BACDF" d="M17.998,36.178c-3.563,0-6.879-1.043-9.671-2.834c0.493,0.059,0.996,0.088,1.505,0.088
				c2.956,0,5.676-1.008,7.835-2.699c-2.761-0.051-5.091-1.875-5.894-4.383c0.386,0.074,0.78,0.113,1.188,0.113
				c0.575,0,1.133-0.076,1.662-0.221c-2.887-0.58-5.061-3.129-5.061-6.186c0-0.027,0-0.053,0-0.08
				c0.851,0.473,1.823,0.758,2.857,0.789c-1.692-1.131-2.807-3.061-2.807-5.25c0-1.156,0.312-2.24,0.854-3.172
				c3.111,3.816,7.76,6.328,13.003,6.592c-0.107-0.463-0.163-0.943-0.163-1.438c0-3.484,2.824-6.309,6.309-6.309
				c1.814,0,3.454,0.766,4.604,1.992c1.437-0.283,2.787-0.809,4.006-1.531c-0.471,1.473-1.471,2.709-2.773,3.49
				c1.275-0.152,2.491-0.492,3.623-0.994c-0.846,1.266-1.915,2.377-3.148,3.266c0.013,0.271,0.019,0.543,0.019,0.816
				C35.946,26.566,29.602,36.178,17.998,36.178"/>
		</g>
	</g>
</g>
</svg>
